<mxfile host="app.diagrams.net" modified="2023-11-21T18:47:24.213Z" agent="Mozilla/5.0 (Windows NT 10.0; Win64; x64) AppleWebKit/537.36 (KHTML, like Gecko) Chrome/119.0.0.0 Safari/537.36" etag="ZVpVMZNqT1Y1vvZe3HsM" version="22.1.3" type="github">
  <diagram name="Página-1" id="P95CgdZE0NT2cX53h2qo">
    <mxGraphModel dx="1434" dy="750" grid="1" gridSize="10" guides="1" tooltips="1" connect="1" arrows="1" fold="1" page="1" pageScale="1" pageWidth="827" pageHeight="1169" math="0" shadow="0">
      <root>
        <mxCell id="0" />
        <mxCell id="1" parent="0" />
        <mxCell id="n5bL79Ub-GTMx_rxAtql-1" style="edgeStyle=orthogonalEdgeStyle;rounded=0;orthogonalLoop=1;jettySize=auto;html=1;exitX=1;exitY=0.5;exitDx=0;exitDy=0;entryX=0;entryY=0.5;entryDx=0;entryDy=0;" parent="1" source="pa0aKPUL_z6fXLsjY_jJ-1" target="pa0aKPUL_z6fXLsjY_jJ-6" edge="1">
          <mxGeometry relative="1" as="geometry" />
        </mxCell>
        <mxCell id="pa0aKPUL_z6fXLsjY_jJ-1" value="Cliente" style="rounded=0;whiteSpace=wrap;html=1;fillColor=#97D077;" parent="1" vertex="1">
          <mxGeometry x="214" y="280" width="120" height="60" as="geometry" />
        </mxCell>
        <mxCell id="pa0aKPUL_z6fXLsjY_jJ-2" value="Una empresa dispone de una aplicación de facturación pero nos encarga un programa para controlar las facturas de los morosos. Interesa que guardemos todos los clientes (sean o no morosos), de cada uno sólo nombre/apellidos, dir y NIF. De las facturas num, importe y fecha. Aunque el cliente pague todas las facturas debidas quiere saber las que debió en algún momento. Como mucho permitiremos que nos deba 4 facturas" style="text;html=1;strokeColor=none;fillColor=none;align=left;verticalAlign=middle;whiteSpace=wrap;rounded=0;fontSize=13;spacingTop=0;spacingBottom=0;fontFamily=Verdana;" parent="1" vertex="1">
          <mxGeometry x="39" y="40" width="750" height="110" as="geometry" />
        </mxCell>
        <mxCell id="pa0aKPUL_z6fXLsjY_jJ-3" value="Factura" style="rounded=0;whiteSpace=wrap;html=1;fillColor=#97D077;" parent="1" vertex="1">
          <mxGeometry x="494" y="280" width="120" height="60" as="geometry" />
        </mxCell>
        <mxCell id="n5bL79Ub-GTMx_rxAtql-3" style="edgeStyle=orthogonalEdgeStyle;rounded=0;orthogonalLoop=1;jettySize=auto;html=1;exitX=1;exitY=0.5;exitDx=0;exitDy=0;entryX=0;entryY=0.5;entryDx=0;entryDy=0;" parent="1" source="pa0aKPUL_z6fXLsjY_jJ-6" target="pa0aKPUL_z6fXLsjY_jJ-3" edge="1">
          <mxGeometry relative="1" as="geometry" />
        </mxCell>
        <mxCell id="pa0aKPUL_z6fXLsjY_jJ-6" value="E" style="rhombus;whiteSpace=wrap;html=1;fillColor=#A680B8;" parent="1" vertex="1">
          <mxGeometry x="374" y="270" width="80" height="80" as="geometry" />
        </mxCell>
        <mxCell id="pa0aKPUL_z6fXLsjY_jJ-12" value="numero factura" style="ellipse;whiteSpace=wrap;html=1;fillColor=#ffe6cc;strokeColor=#d79b00;" parent="1" vertex="1">
          <mxGeometry x="454" y="180" width="90" height="60" as="geometry" />
        </mxCell>
        <mxCell id="pa0aKPUL_z6fXLsjY_jJ-13" value="importe" style="ellipse;whiteSpace=wrap;html=1;fillColor=#ffe6cc;strokeColor=#d79b00;" parent="1" vertex="1">
          <mxGeometry x="564" y="180" width="90" height="60" as="geometry" />
        </mxCell>
        <mxCell id="pa0aKPUL_z6fXLsjY_jJ-14" value="fecha" style="ellipse;whiteSpace=wrap;html=1;fillColor=#ffe6cc;strokeColor=#d79b00;" parent="1" vertex="1">
          <mxGeometry x="564" y="380" width="90" height="60" as="geometry" />
        </mxCell>
        <mxCell id="pa0aKPUL_z6fXLsjY_jJ-16" value="nombre" style="ellipse;whiteSpace=wrap;html=1;fillColor=#ffe6cc;strokeColor=#d79b00;" parent="1" vertex="1">
          <mxGeometry x="174" y="180" width="90" height="60" as="geometry" />
        </mxCell>
        <mxCell id="pa0aKPUL_z6fXLsjY_jJ-17" value="apellidos" style="ellipse;whiteSpace=wrap;html=1;fillColor=#ffe6cc;strokeColor=#d79b00;" parent="1" vertex="1">
          <mxGeometry x="284" y="180" width="90" height="60" as="geometry" />
        </mxCell>
        <mxCell id="pa0aKPUL_z6fXLsjY_jJ-18" value="dir" style="ellipse;whiteSpace=wrap;html=1;fillColor=#ffe6cc;strokeColor=#d79b00;" parent="1" vertex="1">
          <mxGeometry x="284" y="380" width="90" height="60" as="geometry" />
        </mxCell>
        <mxCell id="pa0aKPUL_z6fXLsjY_jJ-19" value="NIF" style="ellipse;whiteSpace=wrap;html=1;dashed=1;dashPattern=1 2;strokeWidth=3;fillColor=#FFCE9F;" parent="1" vertex="1">
          <mxGeometry x="174" y="380" width="90" height="60" as="geometry" />
        </mxCell>
        <mxCell id="pa0aKPUL_z6fXLsjY_jJ-20" value="ID" style="ellipse;whiteSpace=wrap;html=1;strokeWidth=2;fillColor=#FFCE9F;" parent="1" vertex="1">
          <mxGeometry x="84" y="280" width="90" height="60" as="geometry" />
        </mxCell>
        <mxCell id="pa0aKPUL_z6fXLsjY_jJ-21" value="ID" style="ellipse;whiteSpace=wrap;html=1;strokeWidth=2;fillColor=#FFCE9F;" parent="1" vertex="1">
          <mxGeometry x="454" y="380" width="90" height="60" as="geometry" />
        </mxCell>
        <mxCell id="pa0aKPUL_z6fXLsjY_jJ-22" value="" style="endArrow=none;html=1;rounded=0;entryX=0.5;entryY=1;entryDx=0;entryDy=0;exitX=0.5;exitY=0;exitDx=0;exitDy=0;" parent="1" source="pa0aKPUL_z6fXLsjY_jJ-1" target="pa0aKPUL_z6fXLsjY_jJ-17" edge="1">
          <mxGeometry width="50" height="50" relative="1" as="geometry">
            <mxPoint x="404" y="300" as="sourcePoint" />
            <mxPoint x="454" y="250" as="targetPoint" />
          </mxGeometry>
        </mxCell>
        <mxCell id="pa0aKPUL_z6fXLsjY_jJ-23" value="" style="endArrow=none;html=1;rounded=0;exitX=0.5;exitY=0;exitDx=0;exitDy=0;entryX=0.5;entryY=1;entryDx=0;entryDy=0;" parent="1" source="pa0aKPUL_z6fXLsjY_jJ-1" target="pa0aKPUL_z6fXLsjY_jJ-16" edge="1">
          <mxGeometry width="50" height="50" relative="1" as="geometry">
            <mxPoint x="404" y="300" as="sourcePoint" />
            <mxPoint x="454" y="250" as="targetPoint" />
          </mxGeometry>
        </mxCell>
        <mxCell id="pa0aKPUL_z6fXLsjY_jJ-24" value="" style="endArrow=none;html=1;rounded=0;exitX=0.5;exitY=1;exitDx=0;exitDy=0;entryX=0.5;entryY=0;entryDx=0;entryDy=0;" parent="1" source="pa0aKPUL_z6fXLsjY_jJ-1" target="pa0aKPUL_z6fXLsjY_jJ-18" edge="1">
          <mxGeometry width="50" height="50" relative="1" as="geometry">
            <mxPoint x="404" y="300" as="sourcePoint" />
            <mxPoint x="454" y="250" as="targetPoint" />
          </mxGeometry>
        </mxCell>
        <mxCell id="pa0aKPUL_z6fXLsjY_jJ-25" value="" style="endArrow=none;html=1;rounded=0;exitX=0.5;exitY=1;exitDx=0;exitDy=0;entryX=0.5;entryY=0;entryDx=0;entryDy=0;" parent="1" source="pa0aKPUL_z6fXLsjY_jJ-1" target="pa0aKPUL_z6fXLsjY_jJ-19" edge="1">
          <mxGeometry width="50" height="50" relative="1" as="geometry">
            <mxPoint x="404" y="300" as="sourcePoint" />
            <mxPoint x="454" y="250" as="targetPoint" />
          </mxGeometry>
        </mxCell>
        <mxCell id="pa0aKPUL_z6fXLsjY_jJ-26" value="" style="endArrow=none;html=1;rounded=0;exitX=1;exitY=0.5;exitDx=0;exitDy=0;entryX=0;entryY=0.5;entryDx=0;entryDy=0;" parent="1" source="pa0aKPUL_z6fXLsjY_jJ-20" target="pa0aKPUL_z6fXLsjY_jJ-1" edge="1">
          <mxGeometry width="50" height="50" relative="1" as="geometry">
            <mxPoint x="404" y="300" as="sourcePoint" />
            <mxPoint x="454" y="250" as="targetPoint" />
          </mxGeometry>
        </mxCell>
        <mxCell id="pa0aKPUL_z6fXLsjY_jJ-27" value="" style="endArrow=none;html=1;rounded=0;entryX=0.5;entryY=1;entryDx=0;entryDy=0;exitX=0.5;exitY=0;exitDx=0;exitDy=0;" parent="1" source="pa0aKPUL_z6fXLsjY_jJ-3" target="pa0aKPUL_z6fXLsjY_jJ-12" edge="1">
          <mxGeometry width="50" height="50" relative="1" as="geometry">
            <mxPoint x="404" y="300" as="sourcePoint" />
            <mxPoint x="454" y="250" as="targetPoint" />
          </mxGeometry>
        </mxCell>
        <mxCell id="pa0aKPUL_z6fXLsjY_jJ-28" value="" style="endArrow=none;html=1;rounded=0;entryX=0.5;entryY=1;entryDx=0;entryDy=0;exitX=0.5;exitY=0;exitDx=0;exitDy=0;" parent="1" source="pa0aKPUL_z6fXLsjY_jJ-3" target="pa0aKPUL_z6fXLsjY_jJ-13" edge="1">
          <mxGeometry width="50" height="50" relative="1" as="geometry">
            <mxPoint x="404" y="300" as="sourcePoint" />
            <mxPoint x="454" y="250" as="targetPoint" />
          </mxGeometry>
        </mxCell>
        <mxCell id="pa0aKPUL_z6fXLsjY_jJ-29" value="" style="endArrow=none;html=1;rounded=0;entryX=0.5;entryY=0;entryDx=0;entryDy=0;exitX=0.5;exitY=1;exitDx=0;exitDy=0;" parent="1" source="pa0aKPUL_z6fXLsjY_jJ-3" target="pa0aKPUL_z6fXLsjY_jJ-14" edge="1">
          <mxGeometry width="50" height="50" relative="1" as="geometry">
            <mxPoint x="404" y="300" as="sourcePoint" />
            <mxPoint x="454" y="250" as="targetPoint" />
          </mxGeometry>
        </mxCell>
        <mxCell id="pa0aKPUL_z6fXLsjY_jJ-30" value="" style="endArrow=none;html=1;rounded=0;entryX=0.5;entryY=0;entryDx=0;entryDy=0;exitX=0.5;exitY=1;exitDx=0;exitDy=0;" parent="1" source="pa0aKPUL_z6fXLsjY_jJ-3" target="pa0aKPUL_z6fXLsjY_jJ-21" edge="1">
          <mxGeometry width="50" height="50" relative="1" as="geometry">
            <mxPoint x="404" y="300" as="sourcePoint" />
            <mxPoint x="454" y="250" as="targetPoint" />
          </mxGeometry>
        </mxCell>
        <mxCell id="pa0aKPUL_z6fXLsjY_jJ-31" value="(0:N)" style="text;html=1;strokeColor=none;fillColor=none;align=center;verticalAlign=middle;whiteSpace=wrap;rounded=0;" parent="1" vertex="1">
          <mxGeometry x="444" y="280" width="60" height="30" as="geometry" />
        </mxCell>
        <mxCell id="pa0aKPUL_z6fXLsjY_jJ-32" value="(1:1)" style="text;html=1;strokeColor=none;fillColor=none;align=center;verticalAlign=middle;whiteSpace=wrap;rounded=0;" parent="1" vertex="1">
          <mxGeometry x="324" y="280" width="60" height="30" as="geometry" />
        </mxCell>
        <mxCell id="pa0aKPUL_z6fXLsjY_jJ-33" value="1:N" style="text;html=1;strokeColor=none;fillColor=none;align=center;verticalAlign=middle;whiteSpace=wrap;rounded=0;" parent="1" vertex="1">
          <mxGeometry x="384" y="240" width="60" height="30" as="geometry" />
        </mxCell>
        <mxCell id="EZI_dlxRz5NAecFjj_wy-2" style="edgeStyle=orthogonalEdgeStyle;rounded=0;orthogonalLoop=1;jettySize=auto;html=1;exitX=0;exitY=0.5;exitDx=0;exitDy=0;entryX=1;entryY=0.5;entryDx=0;entryDy=0;endArrow=none;endFill=0;" edge="1" parent="1" source="EZI_dlxRz5NAecFjj_wy-1" target="pa0aKPUL_z6fXLsjY_jJ-3">
          <mxGeometry relative="1" as="geometry" />
        </mxCell>
        <mxCell id="EZI_dlxRz5NAecFjj_wy-1" value="pagada" style="ellipse;whiteSpace=wrap;html=1;fillColor=#ffe6cc;strokeColor=#d79b00;" vertex="1" parent="1">
          <mxGeometry x="654" y="280" width="90" height="60" as="geometry" />
        </mxCell>
        <mxCell id="EZI_dlxRz5NAecFjj_wy-4" style="edgeStyle=orthogonalEdgeStyle;rounded=0;orthogonalLoop=1;jettySize=auto;html=1;exitX=0.5;exitY=0;exitDx=0;exitDy=0;entryX=0.5;entryY=1;entryDx=0;entryDy=0;endArrow=none;endFill=0;" edge="1" parent="1" source="EZI_dlxRz5NAecFjj_wy-3" target="pa0aKPUL_z6fXLsjY_jJ-1">
          <mxGeometry relative="1" as="geometry" />
        </mxCell>
        <mxCell id="EZI_dlxRz5NAecFjj_wy-3" value="moroso&lt;br&gt;(calculado)" style="ellipse;whiteSpace=wrap;html=1;fillColor=#ffe6cc;strokeColor=#d79b00;" vertex="1" parent="1">
          <mxGeometry x="229" y="450" width="90" height="60" as="geometry" />
        </mxCell>
        <mxCell id="EZI_dlxRz5NAecFjj_wy-5" value="Campo calculado de tipo boolean, a partir del atributo &quot;pagada&quot; de factura" style="shape=callout;whiteSpace=wrap;html=1;perimeter=calloutPerimeter;direction=west;size=30;position=0.14;position2=0.07;fillColor=#fff2cc;strokeColor=#d6b656;" vertex="1" parent="1">
          <mxGeometry x="110" y="500" width="140" height="100" as="geometry" />
        </mxCell>
      </root>
    </mxGraphModel>
  </diagram>
</mxfile>
